<?xml version="1.0" encoding="UTF-8" standalone="no"?>
<svg width="701px" height="282px" viewBox="0 0 701 282" version="1.1" xmlns="http://www.w3.org/2000/svg" xmlns:xlink="http://www.w3.org/1999/xlink" xmlns:sketch="http://www.bohemiancoding.com/sketch/ns">
    <!-- Generator: Sketch 3.3.2 (12043) - http://www.bohemiancoding.com/sketch -->
    <title>Rectangle 1</title>
    <desc>Created with Sketch.</desc>
    <defs></defs>
    <g id="Page-1" stroke="none" stroke-width="1" fill="none" fill-rule="evenodd" sketch:type="MSPage">
        <g id="Rectangle-1" sketch:type="MSLayerGroup" transform="translate(-1.000000, -1.000000)" fill-opacity="0.819999993" fill="#FFFFFF">
            <path d="M279.310483,99.8989575 C335.85314,86.6485572 410.236316,69.2173482 479.547236,52.9747892 L479.547236,52.9747892 C477.203807,62.1738999 474.815757,73.3034717 474.000001,83 C472.86108,96.5378554 473.785449,107.027396 474,111 C474.376365,117.968747 476.17681,123.652178 477,136 C478.000001,151 463,142 455,142 C443.9975,142 428,165 427,174 C426,183 427,208 438,214 C440.164019,215.180374 447.999999,218 453,217 C458,216 462.999999,215 471.999999,217 C475.45408,217.767574 484.999999,224 484.999999,241 C484.999999,254.710625 482.219667,260.781492 480.23851,265.10686 C430.833292,265.84112 378.455901,266.619553 341.032394,267.175741 C327.358839,267.378958 310,283.183258 282,283 C268.681548,282.912832 265.392962,279.925856 264.278967,276.837157 C264.177223,275.562331 264.084006,274.282906 264.000001,273 C263.004795,257.801388 276.606038,234.870036 273,224 C269.09298,212.222686 245.999999,218 239.999999,215 C226.476034,208.238018 230.397428,179.205143 233,174 C243,154 264.503929,164.335953 267,166 C273,170 280.939038,156.909503 281.000001,151 C281.099745,141.331278 278.000001,133 278.000001,120 C278.000001,114.048801 278.628701,106.421068 279.310483,99.8989575 Z M267.29265,102.715258 C265.922489,103.036346 264.564962,103.354474 263.220447,103.669552 C237.146965,109.779701 193,121 185,122 C177,123 143.968111,113.546671 178.984057,80.2733353 C214.000002,46.9999993 254,5.99999996 254,5.99999996 L0.999999968,0.99999996 C0.999999968,0.99999996 133.783528,99.7317797 131,122 C122,194 118.414599,224.489397 116,235.000003 C114.282514,242.476117 120,270.000003 150.999999,270.000003 C187.190981,269.462133 218.666242,270.488218 254.56701,270.046597 C254.367108,269.26311 254.177638,268.57732 254.000001,268 C252.131505,261.927391 254.000001,256 258.000001,245 C262.000001,234 260.970857,231.779683 260.000001,229 C258.372675,224.34076 251.641503,227.598959 245.999999,227 C239.111775,226.268677 235.124709,223.12471 232.999999,221 C215,203 218.412699,186.994713 220.000001,178 C223,161 239,149 250,148 C258.0019,147.272555 272.25541,157.277054 270,146 C268,136 267.376365,127.968747 267,121 C266.725903,115.924844 266.974719,108.68925 267.29265,102.715258 Z M496.64313,48.9684787 C595.638936,25.7694616 680,6 680,6 C680,6 708,-1 700,33 C694.436956,56.6429374 666,191.000003 655,225.000003 C644,259.000003 622,263 622,263 C622,263 564.047568,263.861289 496.494907,264.865257 C498.230107,245.872274 498.90846,223.740532 486.999999,210 C473.999999,195 452.999999,208 446.999999,205 C433.476034,198.238018 438.397429,173.205143 441,168 C451,148 465.000001,156 475.000001,158 C481.076153,159.21523 489.939038,145.909503 490.000001,140 C490.099745,130.331278 489.000001,130 487.000001,111 C485.000001,92 487.000001,69 493.000001,57 C494.166982,54.6660371 495.418069,51.8672333 496.643057,48.9684957 L496.64313,48.9684787 Z" sketch:type="MSShapeGroup"></path>
        </g>
    </g>
</svg>