<?xml version="1.0" encoding="UTF-8" standalone="no"?>
<svg width="672px" height="665px" viewBox="0 0 672 665" version="1.1" xmlns="http://www.w3.org/2000/svg" xmlns:xlink="http://www.w3.org/1999/xlink" xmlns:sketch="http://www.bohemiancoding.com/sketch/ns">
    <!-- Generator: Sketch 3.3.2 (12043) - http://www.bohemiancoding.com/sketch -->
    <title>Group + Oval 3 + Oval 3 Copy + Oval 3 + Oval 3 Copy 2 + Group</title>
    <desc>Created with Sketch.</desc>
    <defs></defs>
    <g id="Page-1" stroke="none" stroke-width="1" fill="none" fill-rule="evenodd" sketch:type="MSPage">
        <g id="Group-+-Oval-3-+-Oval-3-Copy-+-Oval-3-+-Oval-3-Copy-2-+-Group" sketch:type="MSLayerGroup">
            <g id="Group" sketch:type="MSShapeGroup">
                <path d="M139,225 L458,225 L458,274 L513,322 L139,322 L139,225 Z" id="Rectangle-10" fill="#298286"></path>
                <circle id="Oval-1" fill="#FAF6D1" cx="316" cy="266" r="22"></circle>
                <circle id="Oval-1-Copy" fill="#FAF6D1" cx="381" cy="266" r="22"></circle>
                <path d="M18.5,273.506386 C18.5,266.32146 24.2893099,261.096347 31.434515,261.818847 L217.503777,275.179325 C224.681393,275.256748 236.222002,276.272355 242.807762,279.103644 L271.814836,303.08233 C276.61152,308.409561 286.321454,312.708857 293.50214,312.685078 L640.49786,311.535978 C647.678744,311.512198 653.5,317.311146 653.5,324.493322 L653.5,348.784201 C653.5,355.964125 647.681692,361.711175 640.49681,361.625699 L293.491601,361.539091 C286.316538,361.674683 274.757947,361.002176 268.267567,357.979706 L235.180953,323.614419 C228.729741,320.818554 217.672525,318.515312 210.504343,318.381949 L31.3943841,302.85879 C24.2730124,301.975272 18.5,295.440483 18.5,288.24958 L18.5,273.506386 Z" id="Rectangle-9" fill="#276F6E"></path>
                <path d="M293,75.9917683 C293,68.8166128 298.829801,63 305.997216,63 L381.002784,63 C388.180948,63 394,68.8127505 394,75.9917683 L394,210.008232 C394,217.183387 388.170199,223 381.002784,223 L305.997216,223 C298.819052,223 293,217.187249 293,210.008232 L293,75.9917683 Z" id="Rectangle-11" fill="#276F6E"></path>
                <path d="M217.791012,304.041302 C230.402372,305.972799 245.153861,314.739199 252.069396,324.7548 L253.788957,327.2452 C256.851577,331.680718 261.454955,335.74803 266.730565,339 L266.730565,339 L663.930598,339 C668.061637,339 671.429177,342.357864 671.429177,346.5 C671.429177,350.633707 668.071949,354 663.930598,354 L653.201672,354 C652.426438,355.623098 651.272129,357.346667 649.722516,359.135952 L588.468307,429.864049 C579.793749,439.880258 562.015153,448 548.759465,448 L151.431343,448 C138.175313,448 119.078496,441.251322 109.007897,432.633341 L121.245499,443.028331 C111.405815,434.176128 97.02098,418.384154 89.0593028,407.777083 L15.096657,311.0034 C14.2628325,309.923084 13.5589212,308.870032 12.9814497,307.850866 L7.67609355,307.572824 C3.53842465,307.355978 0.364516,303.827168 0.581298628,299.690709 C0.797640148,295.562667 4.32600323,292.376668 8.46113289,292.593381 L21.6667526,293.285458 C22.5276764,293.249655 23.4372442,293.256743 24.3942524,293.309017 L78.314777,296.254255 L215.18226,303.427176 C216.109325,303.475761 216.988007,303.690609 217.791012,304.041302 Z" id="Rectangle-7" fill="#274643"></path>
                <rect id="Rectangle-1" fill="#274643" x="283" y="98" width="120" height="15" rx="9"></rect>
                <rect id="Rectangle-1-Copy-2" fill="#274643" transform="translate(256.500000, 72.000000) scale(-1, 1) rotate(-90.000000) translate(-256.500000, -72.000000) " x="185" y="64" width="143" height="16" rx="9"></rect>
                <rect id="Rectangle-11-Copy" fill="#298286" x="164" y="138" width="142" height="82" rx="13"></rect>
                <rect id="Rectangle-13" fill="#FAF6D1" x="191" y="167" width="46" height="31"></rect>
                <rect id="Rectangle-1-Copy-3" fill="#274643" transform="translate(234.500000, 145.500000) scale(-1, 1) translate(-234.500000, -145.500000) " x="156" y="138" width="157" height="15" rx="9"></rect>
                <rect id="Rectangle-1-Copy-4" fill="#274643" transform="translate(299.000000, 217.500000) scale(-1, 1) translate(-299.000000, -217.500000) " x="129" y="210" width="340" height="15" rx="9"></rect>
                <rect id="Rectangle-1-Copy" fill="#274643" x="233" y="84" width="48" height="15" rx="9"></rect>
                <path d="M232.141627,10.6430622 C237.586256,9.73562398 242,13.4745589 242,19.0006116 L242,29.9993884 C242,35.5225737 237.591714,39.2652857 232.141627,38.3569378 L203.858373,33.6430622 C198.413744,32.735624 194,27.5198234 194,21.9947828 L194,27.0052172 C194,21.4794883 198.408286,16.2652857 203.858373,15.3569378 L232.141627,10.6430622 Z" id="Rectangle-9" fill="#274643"></path>
            </g>
            <g id="Oval-3-+-Oval-3-Copy-+-Oval-3-+-Oval-3-Copy-2-+-Group" transform="translate(520.000000, 328.000000)" sketch:type="MSShapeGroup">
                <g id="Oval-3-+-Oval-3-Copy" transform="translate(15.000000, 270.000000)">
                    <circle id="Oval-3" fill="#274643" cx="14" cy="14" r="14"></circle>
                    <circle id="Oval-3-Copy" fill="#FAF6D1" cx="14.5" cy="14.5" r="8.5"></circle>
                </g>
                <g id="Oval-3-+-Oval-3-Copy-2" transform="translate(15.000000, 0.000000)">
                    <circle id="Oval-3" fill="#274643" cx="14" cy="14" r="14"></circle>
                    <circle id="Oval-3-Copy" fill="#FAF6D1" cx="14.5" cy="14.5" r="8.5"></circle>
                </g>
                <g id="Group" transform="translate(0.000000, 21.000000)">
                    <rect id="Rectangle-14" fill="#276F6E" x="25" y="0" width="9" height="252" rx="4"></rect>
                    <rect id="Rectangle-15" fill="#274643" x="15" y="274" width="28" height="10" rx="6"></rect>
                    <rect id="Rectangle-15-Copy-2" fill="#274643" transform="translate(29.000000, 294.000000) rotate(-90.000000) translate(-29.000000, -294.000000) " x="15" y="289" width="28" height="10" rx="6"></rect>
                    <path d="M0,291.156911 C0,287.848595 1.93054494,287.030266 4.36871356,289.286437 C4.36871356,289.286437 20,305.166673 30,305.166674 C40,305.166675 55.6446406,289.27433 55.6446406,289.27433 C58.0500392,287.005734 60,287.846491 60,291.156911 L60,289.176437 C60,292.484754 58.7239882,297.539476 56.9228097,300.304181 C56.9228097,300.304181 51,315.166674 30,315.166674 C9,315.166674 3.07719033,300.304181 3.07719033,300.304181 C1.37770504,297.466814 0,292.486858 0,289.176437 L0,291.156911 Z" id="Rectangle-15-Copy" fill="#274643"></path>
                </g>
            </g>
        </g>
    </g>
</svg>